<!DOCTYPE svg PUBLIC "-//W3C//DTD SVG 1.1//EN" "http://www.w3.org/Graphics/SVG/1.1/DTD/svg11.dtd">
<!-- Uploaded to: SVG Repo, www.svgrepo.com, Transformed by: SVG Repo Mixer Tools -->
<svg width="201px" height="201px" viewBox="-5.76 -5.76 35.52 35.52" xmlns="http://www.w3.org/2000/svg" fill="#003366" stroke="#003366" transform="rotate(0)">
<g id="SVGRepo_bgCarrier" stroke-width="0" transform="translate(0,0), scale(1)">
<rect x="-5.76" y="-5.76" width="35.52" height="35.52" rx="17.76" fill="#ffffff" strokewidth="0"/>
</g>
<g id="SVGRepo_tracerCarrier" stroke-linecap="round" stroke-linejoin="round"/>
<g id="SVGRepo_iconCarrier">
<path d="M14 11.536l1 1V20h-4V9.946l.965-.446.035.036V19h2zM12 2h2v2.464l1 1V1h-4v3.439l1-.462zM5 12h4v8H5zm1 7h2v-6H6zM18 6h2v4.464l.536.536H21V5h-4v2.464l1 1zm2 13h-2v-3.464l-1-1V20h4v-4h-1zM2 1H1v22h22v-1H2zm17.707 12l-7.1-7.1L5.89 9H5v1h1l6.393-2.9 6.9 6.9H21v-1z"/>
<path fill="none" d="M0 0h24v24H0z"/>
</g>
</svg>